<svg width="217" height="41" viewBox="0 0 217 41" fill="none" xmlns="http://www.w3.org/2000/svg">
<g id="Group 180">
<path id="Star 1" d="M20.5 0.0876465L24.9903 13.9073H39.5211L27.7654 22.4483L32.2557 36.268L20.5 27.727L8.7443 36.268L13.2346 22.4483L1.47887 13.9073H16.0097L20.5 0.0876465Z" fill="#DE9200"/>
<path id="Star 2" d="M64.5 1.70568L68.5148 14.0618L68.627 14.4073H68.9903H81.9823L71.4715 22.0438L71.1776 22.2573L71.2899 22.6028L75.3046 34.959L64.7939 27.3225L64.5 27.1089L64.2061 27.3225L53.6954 34.959L57.7101 22.6028L57.8224 22.2573L57.5285 22.0438L47.0177 14.4073H60.0097H60.373L60.4852 14.0618L64.5 1.70568Z" stroke="#DE9200"/>
<path id="Star 3" d="M108.5 1.70568L112.515 14.0618L112.627 14.4073H112.99H125.982L115.472 22.0438L115.178 22.2573L115.29 22.6028L119.305 34.959L108.794 27.3225L108.5 27.1089L108.206 27.3225L97.6954 34.959L101.71 22.6028L101.822 22.2573L101.528 22.0438L91.0177 14.4073H104.01H104.373L104.485 14.0618L108.5 1.70568Z" stroke="#DE9200"/>
<path id="Star 4" d="M152.5 1.70568L156.515 14.0618L156.627 14.4073H156.99H169.982L159.472 22.0438L159.178 22.2573L159.29 22.6028L163.305 34.959L152.794 27.3225L152.5 27.1089L152.206 27.3225L141.695 34.959L145.71 22.6028L145.822 22.2573L145.528 22.0438L135.018 14.4073H148.01H148.373L148.485 14.0618L152.5 1.70568Z" stroke="#DE9200"/>
<path id="Star 5" d="M196.5 1.70568L200.515 14.0618L200.627 14.4073H200.99H213.982L203.472 22.0438L203.178 22.2573L203.29 22.6028L207.305 34.959L196.794 27.3225L196.5 27.1089L196.206 27.3225L185.695 34.959L189.71 22.6028L189.822 22.2573L189.528 22.0438L179.018 14.4073H192.01H192.373L192.485 14.0618L196.5 1.70568Z" stroke="#DE9200"/>
</g>
</svg>
