<svg width="216" height="41" viewBox="0 0 216 41" fill="none" xmlns="http://www.w3.org/2000/svg">
<g id="Group 180">
<path id="Star 1" d="M20 0.769409L24.4903 14.5891H39.0211L27.2654 23.1301L31.7557 36.9497L20 28.4087L8.2443 36.9497L12.7346 23.1301L0.97887 14.5891H15.5097L20 0.769409Z" fill="#DE9200"/>
<path id="Star 2" d="M64 0.769409L68.4903 14.5891H83.0211L71.2654 23.1301L75.7557 36.9497L64 28.4087L52.2443 36.9497L56.7346 23.1301L44.9789 14.5891H59.5097L64 0.769409Z" fill="#DE9200"/>
<path id="Star 3" d="M108 0.769409L112.49 14.5891H127.021L115.265 23.1301L119.756 36.9497L108 28.4087L96.2443 36.9497L100.735 23.1301L88.9789 14.5891H103.51L108 0.769409Z" fill="#DE9200"/>
<path id="Star 4" d="M152 0.769409L156.49 14.5891H171.021L159.265 23.1301L163.756 36.9497L152 28.4087L140.244 36.9497L144.735 23.1301L132.979 14.5891H147.51L152 0.769409Z" fill="#DE9200"/>
<path id="Star 5" d="M196 2.38744L200.015 14.7436L200.127 15.0891H200.49H213.482L202.972 22.7256L202.678 22.9391L202.79 23.2846L206.805 35.6407L196.294 28.0042L196 27.7907L195.706 28.0042L185.195 35.6407L189.21 23.2846L189.322 22.9391L189.028 22.7256L178.518 15.0891H191.51H191.873L191.985 14.7436L196 2.38744Z" stroke="#DE9200"/>
</g>
</svg>
